<?xml version="1.0" encoding="utf-8" ?>
<svg xmlns="http://www.w3.org/2000/svg" xmlns:xlink="http://www.w3.org/1999/xlink" width="542" height="179">
	<path fill="#FEFEFE" d="M0 0L541.537 0C542.008 0.722769 541.976 1.37853 541.99 2.21265C542.232 16.6302 542.003 31.0914 542.005 45.5127L542.005 131.336L542 165.489C542 168.281 542.426 175.872 541.908 178.195C541.843 178.488 541.699 178.751 541.537 179L0 179L0 0Z"/>
	<path fill="#2D3960" d="M95.016 48.2627C95.5339 48.2414 96.052 48.2235 96.5701 48.2089C102.958 48.0371 109.388 48.1731 115.781 48.1746C123.496 48.1764 131.933 47.4739 139.463 49.3762C143.892 50.495 148.122 52.6503 151.438 55.8154C157.256 61.3696 159.644 69.0569 159.832 76.9129C160.022 84.8639 157.931 93.0912 152.3 98.9635C145.549 106.004 137.158 107.191 127.963 107.38C122.467 107.343 116.971 107.368 111.476 107.457C111.469 111.817 112.139 132.255 110.822 134.493C110.39 135.228 108.882 135.586 108.085 135.751C105.093 136.371 95.2371 136.72 92.7822 135.033C92.1405 134.592 91.5761 133.903 91.435 133.122C90.9821 130.612 91.3135 127.502 91.3116 124.932L91.3128 106.377L91.3144 68.6611C91.3225 63.3868 91.0196 57.9479 91.2623 52.6972C91.3141 51.5777 91.5222 50.375 92.1867 49.445C92.899 48.448 93.8894 48.4332 95.016 48.2627Z"/>
	<path fill="#FEFEFE" d="M111.469 66.4861C117.676 66.4308 130.383 65.1392 135.227 68.9817C137.528 70.8072 138.586 73.5301 138.896 76.3851C139.302 80.129 138.269 83.1642 135.927 86.0593C134.718 87.1113 133.43 87.857 131.882 88.2965C126.892 89.7132 117.04 88.9757 111.54 88.9532C111.289 81.4898 111.472 73.9568 111.469 66.4861Z"/>
	<path fill="#2D3960" d="M305.461 116.435C306.909 114.347 304.517 76.6845 306.444 72.9237C306.707 72.4107 306.97 72.2399 307.511 72.0632C309.905 71.2818 321.402 71.3584 323.56 72.4625C323.742 72.6579 323.893 72.8575 324.01 73.0989C324.888 74.9005 324.714 134.242 324.362 139.949C324.162 143.188 323.707 146.144 322.595 149.207C321.469 152.312 319.057 157.002 315.905 158.479C315.701 159.133 314.582 159.767 314.012 160.114C306.003 165.006 294.235 165.462 285.276 163.249C278.884 161.671 272.944 158.274 269.485 152.492C268.845 151.423 268.311 150.121 268.655 148.864C269.162 147.008 271.275 145.834 272.84 144.969C288.523 136.307 281.526 144.831 292.184 147.86C295.177 148.711 298.783 148.699 301.545 147.121C303.576 145.961 304.816 144.078 305.417 141.849C305.921 139.982 306.418 135.075 305.474 133.425C298.497 134.716 288.582 134.609 281.795 132.234C276.627 130.425 272.547 126.891 270.163 121.946C268.816 119.152 268.281 116.099 267.956 113.035C267.422 108.002 266.991 76.2375 268.209 72.7486C268.667 72.135 269.249 72.0569 269.961 71.891C274.181 71.4602 281.569 71.0444 285.548 72.4445C287.466 74.8427 285.547 104.063 286.518 109.873C286.893 112.112 287.914 114.218 289.815 115.542C293.699 118.246 301.01 117.201 305.461 116.435Z"/>
	<path fill="#2D3960" d="M190.608 70.0366C199.616 69.6398 209.473 70.0862 216.81 76.059C221.622 79.9775 224.195 85.7878 224.814 91.8878C225.422 97.8716 225.478 114.349 224.124 119.841C223.338 123.091 221.831 126.122 219.714 128.711C214.699 134.834 207.403 136.874 199.872 137.643C191.561 138.264 181.867 137.436 175.025 132.194C170.222 128.515 167.187 122.849 166.403 116.878C165.649 111.138 165.614 94.292 166.774 88.9019C167.501 85.5277 168.89 82.1733 171.005 79.4293C175.801 73.2081 183.182 71.022 190.608 70.0366Z"/>
	<path fill="#FEFEFE" d="M193.636 86.4537L193.726 86.4443C196.945 86.122 201.115 86.6369 203.693 88.7662C205.659 90.391 206.055 92.6945 206.26 95.1197C206.621 99.3965 207.22 114.91 204.503 118.068C202.577 120.307 199.783 120.98 196.962 121.188C194.079 121.418 190.66 121.16 188.199 119.513C186.348 118.273 185.5 116.778 185.075 114.618C184.296 110.666 184.127 92.971 186.148 90.09C187.843 87.674 190.919 86.9639 193.636 86.4537Z"/>
	<path fill="#2D3960" d="M420.421 70.0377C428.755 69.6817 437.916 69.6842 444.888 75.0123C449.672 78.6679 452.097 84.1466 452.887 90.0124C453.836 97.0567 453.266 104.528 453.294 111.642C453.316 117.269 453.8 123.252 453.256 128.841C453.144 129.994 453.029 131.003 452.305 131.951C452.174 132.47 451.768 132.765 451.365 133.08C444.442 138.488 424.321 138.316 416.038 137.298C410.432 136.61 404.448 135.32 400.912 130.509C399.81 129.009 399.121 127.17 397.988 125.762C397.956 125.722 397.923 125.683 397.891 125.644C397.993 125.35 397.005 117.179 397.055 115.502C397.192 110.89 398.547 106.108 402.01 102.879C409.282 96.0987 424.894 96.9921 434.3 97.3228C434.935 96.1388 434.824 93.5634 434.565 92.2401C434.142 90.1284 432.894 88.2727 431.099 87.0841C429.455 86.0072 427.504 85.5819 425.563 85.5036C416.617 85.1428 414.446 92.2328 412.024 92.6624C409.384 93.1305 403.184 90.2218 400.957 88.7159C399.861 87.9748 398.764 86.9428 398.53 85.58C398.234 83.8624 399.845 81.4649 400.812 80.1293C405.691 73.3955 412.625 71.2526 420.421 70.0377Z"/>
	<path fill="#FEFEFE" d="M420.667 111.61C425.156 111.05 429.861 111.431 434.359 111.689C434.494 111.918 434.605 112.15 434.647 112.415C434.922 114.136 435.023 121.581 434.194 122.812C432.528 123.185 430.767 123.181 429.065 123.261C425.843 123.402 421.554 123.844 418.6 122.423C417.316 121.806 416.219 120.816 415.763 119.43C415.287 117.987 415.486 116.283 416.162 114.929C417.174 112.906 418.604 112.282 420.667 111.61Z"/>
	<path fill="#888CB1" d="M40.6317 119.433C44.241 127.125 48.1186 133.909 53.8851 140.21L55.411 138.649C58.4666 141.612 63.5774 147.03 66.9767 149.167C69.0192 146.767 70.9506 144.128 72.7489 141.538C86.7243 152.307 104.372 156.486 121.769 154.222C137.399 152.187 148.252 145.591 159.795 135.316C162.226 138.412 165.27 141.108 168.103 143.831C164.508 147.458 160.572 150.509 156.352 153.374C156.583 154.92 160.548 159.52 161.679 161.016C160.674 161.889 159.55 162.592 158.42 163.288C138.478 175.397 114.565 179.14 91.8801 173.702C70.6939 168.534 52.196 155.645 40.0039 137.556C38.1543 134.806 36.4526 131.959 34.9059 129.028C33.8626 127.029 32.978 124.952 31.7971 123.027C34.6806 121.69 37.6004 120.399 40.6317 119.433Z"/>
	<path fill="#BE2934" d="M159.795 135.316C162.226 138.412 165.27 141.108 168.103 143.831C164.508 147.458 160.572 150.509 156.352 153.374L156.261 153.316L155.81 152.821C153.23 152.943 147.101 156.906 144.397 158.122C134.18 162.828 123.027 165.142 111.783 164.891C98.9516 164.605 76.1602 158.877 67.0172 149.335L66.9767 149.167C69.0192 146.767 70.9506 144.128 72.7489 141.538C86.7243 152.307 104.372 156.486 121.769 154.222C137.399 152.187 148.252 145.591 159.795 135.316Z"/>
	<path fill="#6D1325" d="M67.0172 149.335C76.1602 158.877 98.9516 164.605 111.783 164.891C123.027 165.142 134.18 162.828 144.397 158.122C147.101 156.906 153.23 152.943 155.81 152.821L156.261 153.316C155.418 154.228 153.541 155.059 152.426 155.707C144.159 160.61 135.062 163.952 125.588 165.567C103.647 169.421 83.5221 163.719 65.4974 151.076L67.0172 149.335Z"/>
	<path fill="#2D3960" d="M487.092 70.0377C490.149 69.8637 493.264 69.7825 496.317 70.0559C503.545 70.7032 510.802 73.5651 515.525 79.2697C517.422 81.5607 520.207 86.1156 519.849 89.2206C519.736 90.1995 519.252 90.8587 518.48 91.4412C516.477 92.9526 507.472 96.1834 505.046 95.7845C502.643 95.3893 501.393 91.4715 500.067 89.6308C498.585 87.5721 496.329 86.5144 493.867 86.1291C490.919 85.6678 486.925 85.8882 484.453 87.7791C482.716 89.1083 481.926 91.7959 481.642 93.8597C481.115 97.7019 481.125 111.156 481.791 114.706C482.078 116.24 482.665 117.797 483.63 119.037C484.904 120.675 487.333 121.413 489.316 121.647C493.232 122.108 497.988 121.522 500.188 117.829C501.437 115.732 502.118 113.773 504.105 112.219C505.956 111.811 508.697 112.446 510.413 113.206L510.558 113.272C512.944 113.71 516.459 114.525 518.405 116.017C519.243 116.66 519.839 117.513 519.979 118.576C520.355 121.43 517.933 125.113 516.291 127.262C511.673 133.305 504.954 136.418 497.568 137.417C489.226 138.546 478.33 137.877 471.434 132.584C466.486 128.786 464.019 123.221 463.216 117.145C462.673 113.036 462.803 108.819 462.798 104.684C462.787 96.0467 462.154 86.482 467.744 79.2299C472.481 73.0848 479.759 70.9966 487.092 70.0377Z"/>
	<path fill="#2D3960" d="M333.52 71.8911C337.544 71.4513 343.622 71.1581 347.559 72.0157C348.423 72.2041 349.486 72.4752 349.985 73.2629C352.481 77.2043 353.706 82.4934 355.255 86.8894C357.206 92.4284 359.45 98.017 360.923 103.7C361.405 105.561 362.705 114.292 363.343 115.127C363.998 114.868 364.065 113.743 364.163 113.084C364.598 110.154 364.891 107.099 365.598 104.222C366.614 100.093 368.387 95.8755 369.767 91.8361C371.872 85.6757 373.674 79.0425 376.538 73.2081C377.515 72.3438 378.914 72.0479 380.177 71.8784C383.119 71.4835 392.687 71.0208 394.908 72.7195C395.093 73.0717 395.225 73.4179 395.237 73.8208C395.304 76.062 390.615 88.2358 389.341 89.5403C389.43 89.8575 389.393 90.2338 389.29 90.5465C387.374 96.3815 384.749 102.095 382.529 107.827C379.495 115.661 376.708 123.696 373.348 131.392C372.682 132.917 371.846 134.903 370.199 135.534C367.87 136.426 358.233 136.428 356.034 135.376C354.883 134.825 354.09 133.483 353.552 132.376C351.372 127.891 350.02 122.908 348.169 118.271C344.822 109.809 341.552 101.316 338.36 92.7939C336.374 87.61 334.231 82.4522 332.363 77.2285C331.941 76.0473 331.281 73.9663 331.903 72.7743C332.234 72.1399 332.889 72.0903 333.52 71.8911Z"/>
	<path fill="#2D3960" d="M70.4708 22.6588L71.5354 24.6549C73.271 27.3431 74.9157 30.3928 76.9311 32.8618C62.2038 42.1596 51.7801 56.9393 47.9607 73.9385C44.1108 90.9988 47.1304 108.89 56.3661 123.739C58.2823 126.768 60.6669 129.383 62.7064 132.298C60.2343 134.337 57.6792 136.383 55.411 138.649L53.8851 140.21C48.1186 133.909 44.241 127.125 40.6317 119.433C38.8375 115.309 37.3704 110.942 36.5775 106.51C33.4978 107.481 30.3727 108.302 27.2131 108.968C24.0569 91.4547 24.5225 78.8862 29.0771 61.6648C32.0324 62.7725 35.1122 63.5903 38.0933 64.6396C38.731 63.4673 39.0735 61.9129 39.5501 60.6506C40.4957 58.1122 41.5703 55.6238 42.7698 53.1951C49.379 40.4432 58.4508 30.5188 70.4708 22.6588Z"/>
	<path fill="#BE2934" d="M29.0771 61.6648C32.0324 62.7725 35.1122 63.5903 38.0933 64.6396L38.1523 64.8468C37.3612 68.6191 36.3754 72.3619 35.7513 76.1666C34.1374 86.0056 34.5898 96.2288 36.627 105.971L36.5775 106.51C33.4978 107.481 30.3727 108.302 27.2131 108.968C24.0569 91.4547 24.5225 78.8862 29.0771 61.6648Z"/>
	<path fill="#001" d="M38.1523 64.8468C38.5883 65.0867 38.978 65.1751 39.1205 65.6952C39.5047 67.0964 38.1066 70.4463 37.7996 71.9448C36.7548 77.0455 36.2694 82.0175 36.1775 87.2185C36.102 91.4901 36.4744 95.5599 37.0102 99.7968C37.1996 101.294 37.5659 102.847 37.6826 104.34C37.7137 104.738 37.6086 105.121 37.397 105.456C37.2359 105.711 37.0501 105.931 36.8412 106.147L36.627 105.971C34.5898 96.2288 34.1374 86.0056 35.7513 76.1666C36.3754 72.3619 37.3612 68.6191 38.1523 64.8468Z"/>
	<path fill="#2D3960" d="M238.691 44.6172L238.805 44.6025C241.184 44.319 252.15 43.9059 253.805 45.3169C254.268 45.7116 254.356 47.1432 254.426 47.7497C254.923 52.05 254.638 56.585 254.639 60.9193L254.639 84.2812L254.63 117.688C254.628 120.985 254.558 124.285 254.578 127.582C254.587 129.153 254.769 130.752 254.689 132.319C254.643 133.202 254.483 134.202 253.897 134.898C253.186 135.745 252.114 135.772 251.096 135.859C248.355 136.274 239.665 136.499 237.332 135.447C236.712 135.167 236.524 134.877 236.308 134.244C235.41 131.616 235.953 96.4285 235.953 90.3857C235.953 76.6782 235.575 62.8662 235.962 49.1736C235.994 48.0358 236.009 46.7464 236.505 45.7055C237.069 44.9945 237.859 44.8504 238.691 44.6172Z"/>
	<path fill="#BE2934" d="M123.927 1.89749C142.526 4.20923 159.863 12.53 173.307 25.5964C175.294 27.5196 177.373 29.4288 179.098 31.5976C179.374 31.9442 179.672 32.3444 179.777 32.7839C178.618 34.7258 172.748 38.3854 170.791 40.6055C168.891 37.8267 162.929 31.3993 160.134 29.8101C158.012 31.9843 156.249 34.7917 154.352 37.1932C150.407 33.8782 145.846 31.0702 141.195 28.8663C124.15 20.7889 105.638 20.6769 88.0293 26.9758C87.0517 24.187 86.0934 20.4127 84.4026 18.0095C86.124 17.8834 92.7047 15.1297 95.1733 14.4687C99.9791 13.1819 104.959 12.5783 109.874 11.8596C110.215 11.3984 110.09 11.1858 110.033 10.6285L110.245 10.5583C114.517 10.5186 118.678 10.5536 122.925 11.1001C123.303 8.0375 123.637 4.96965 123.927 1.89749Z"/>
	<path fill="#2D3960" d="M123.927 1.89749C142.526 4.20923 159.863 12.53 173.307 25.5964C175.294 27.5196 177.373 29.4288 179.098 31.5976C179.374 31.9442 179.672 32.3444 179.777 32.7839C178.618 34.7258 172.748 38.3854 170.791 40.6055C168.891 37.8267 162.929 31.3993 160.134 29.8101L160.124 29.6829C152.827 24.3481 145.034 19.1005 136.196 16.6561C131.784 15.4358 127.036 14.801 122.721 13.3921C122.442 12.6668 122.752 11.8281 122.925 11.1001C123.303 8.0375 123.637 4.96965 123.927 1.89749Z"/>
	<path fill="#31142B" d="M122.925 11.1001L123.004 11.1328C125.925 12.3147 129.609 12.2546 132.724 13.1497C141.26 15.6601 149.325 19.5599 156.595 24.6923C158.012 25.6826 159.947 26.7306 160.678 28.3538C160.684 29.0851 160.563 29.1299 160.124 29.6829C152.827 24.3481 145.034 19.1005 136.196 16.6561C131.784 15.4358 127.036 14.801 122.721 13.3921C122.442 12.6668 122.752 11.8281 122.925 11.1001Z"/>
	<path fill="#888CB1" d="M34.2828 48.9582C36.0288 46.4451 37.4648 43.6229 39.1126 41.0321C42.3683 35.981 46.1397 31.282 50.3661 27.0107C65.9548 11.3379 87.8771 1.45222 110.073 1.40344C110.054 4.30744 109.746 7.71605 110.245 10.5583L110.033 10.6285C110.09 11.1858 110.215 11.3984 109.874 11.8596C104.959 12.5783 99.9791 13.1819 95.1733 14.4687C92.7047 15.1297 86.124 17.8834 84.4026 18.0095C80.8918 19.9571 75.1936 23.6405 71.5354 24.6549L70.4708 22.6588C58.4508 30.5188 49.379 40.4432 42.7698 53.1951C41.0753 51.6577 36.5135 50.0139 34.2828 48.9582Z"/>
	<path fill="#6D1325" d="M84.4026 18.0095C84.2144 17.3665 83.9875 16.8087 84.2352 16.1546C88.1096 12.8028 104.488 11.0705 110.033 10.6285C110.09 11.1858 110.215 11.3984 109.874 11.8596C104.959 12.5783 99.9791 13.1819 95.1733 14.4687C92.7047 15.1297 86.124 17.8834 84.4026 18.0095Z"/>
	<path fill="#555C89" d="M333.958 16.5495C335.61 16.48 337.201 16.5174 338.849 16.6511C338.872 16.6967 338.895 16.7429 338.92 16.7879C339.063 17.0486 339.179 17.2878 339.261 17.5763C339.837 19.611 339.376 29.1491 339.376 32.0477C339.377 40.2431 339.786 48.5951 339.357 56.7731C339.321 57.4464 339.228 57.9895 338.899 58.5914C338.721 58.9428 338.299 59.1369 337.962 59.3227C332.715 62.2241 324.508 61.8974 318.983 60.2862C317.586 58.5876 315.941 58.3234 314.727 55.741C313.017 52.1036 313.177 39.4808 314.537 35.6967C315.405 33.2814 317.09 31.2961 319.434 30.2099C323.109 28.5067 329.866 28.7822 333.675 30.1877C334.549 28.307 334.111 19.0679 333.958 16.5495Z"/>
	<path fill="#FEFEFE" d="M324.596 34.0258C327.685 33.8112 330.659 34.2614 333.662 34.9219C333.79 35.1831 333.893 35.4535 333.94 35.7419C334.285 37.8565 334.31 54.4029 333.57 55.5176C331.794 56.4031 329.521 56.4048 327.569 56.4992C325.735 56.5006 323.79 56.5256 322.142 55.6007C320.669 54.7742 319.806 53.4252 319.37 51.8326C318.555 48.8571 318.456 39.6953 319.98 37.0385C321.013 35.2373 322.691 34.5534 324.596 34.0258Z"/>
	<path fill="#555C89" d="M472.437 29.2596C475.301 28.9915 478.338 28.8152 481.143 29.553C483.579 30.1939 485.631 31.5654 486.91 33.7666C487.696 35.1185 488.136 36.637 488.349 38.1801C488.709 40.7977 488.878 56.1617 488.335 58.0676C488.072 58.989 487.455 59.5003 486.632 59.9494C482.788 62.0461 472.967 61.8989 468.857 60.6099C463.207 58.8376 465.059 57.3111 462.984 53.49C462.96 53.445 462.934 53.4005 462.909 53.3558C464.131 50.5449 462.471 48.0342 465.464 45.3926C469.522 41.8106 477.854 42.5686 482.912 42.8975C483.009 42.7073 483.1 42.5107 483.159 42.3049C483.567 40.9029 483.333 38.3609 482.629 37.0664C481.819 35.5752 480.438 34.56 478.822 34.0962C476.378 33.3953 472.621 33.5931 470.652 35.3747C469.481 36.4339 468.566 37.7439 467.158 38.5163C467.132 38.5307 467.106 38.5445 467.079 38.5587C466.16 37.6205 464.387 37.0662 463.176 36.5698C463.881 35.7611 464.401 34.7645 465.024 33.8921C466.933 31.2205 469.41 30.1613 472.437 29.2596Z"/>
	<path fill="#FEFEFE" d="M472.739 47.2655C476.158 47.0325 479.458 47.1655 482.867 47.5055C482.968 47.6966 483.063 47.896 483.128 48.1028C483.639 49.7346 483.545 54.7662 482.786 56.2492C481.528 56.8043 479.618 56.7645 478.242 56.8773C475.984 57.1808 473.027 57.2043 470.962 56.1483C469.718 55.512 468.673 54.3767 468.269 53.0249C467.986 52.0785 468.072 51.0736 468.547 50.2031C469.508 48.4411 470.902 47.8097 472.739 47.2655Z"/>
	<path fill="#555C89" d="M503.183 29.2595C507.003 28.6985 511.439 28.9566 514.89 30.7835C516.439 31.6033 518.952 33.295 519.454 35.0933C519.6 35.6155 519.485 36.2065 519.221 36.6723C518.423 38.0808 516.521 38.3731 515.082 38.7676C514.738 37.6226 513.734 36.3626 512.86 35.5599C511.01 33.8605 508.492 33.7431 506.083 33.8497C504.291 33.9291 502.115 34.4 500.862 35.7954C500.2 36.5324 499.982 37.6616 500.054 38.6332C500.453 44.0133 513.279 41.8455 517.839 45.8023C519.177 46.9627 519.859 48.5167 519.975 50.2686C520.161 53.0616 519.941 55.7417 518.02 57.9116C515.774 60.4482 512.367 61.2625 509.117 61.4465C505.883 61.6519 502.667 61.3788 499.748 59.8654C498.032 58.9758 495.113 56.9723 494.545 55.0173C494.361 54.383 494.443 53.7984 494.767 53.2268C495.507 51.9206 497.037 51.6712 498.368 51.274C499.563 52.0654 500.497 54.482 502.599 55.7604C504.798 57.098 508.572 56.9109 510.993 56.3207C512.033 56.0669 513.936 55.3452 514.478 54.3516C514.919 53.5416 515.004 51.8396 514.772 50.9747C513.708 47.0211 502.572 47.7083 498.64 45.467C496.921 44.4867 495.706 43.0071 495.187 41.087C494.575 38.8241 494.758 35.7125 495.962 33.6676C497.494 31.0684 500.411 29.9633 503.183 29.2595Z"/>
	<path fill="#555C89" d="M387.292 29.2595C390.971 28.9183 395.02 28.8836 398.428 30.4774C400.586 31.4862 402.627 33.3263 403.402 35.6406C403.614 36.2714 403.576 36.4605 403.303 37.0358C402.423 37.6056 401.344 38.4191 400.256 38.423C398.734 38.4285 397.71 36.4292 396.722 35.4885C395.097 33.9421 392.596 33.6972 390.442 33.7596C388.529 33.8151 386.5 34.322 385.166 35.7889C384.445 36.5813 383.938 37.6877 384.028 38.777C384.445 43.8667 397.866 42.3 401.584 45.5787C403.185 46.9905 404.123 49.1024 404.253 51.217C404.416 53.6248 403.604 55.9969 401.999 57.7984C399.634 60.4462 396.357 61.2858 392.937 61.4601C390.367 61.5359 387.744 61.4333 385.287 60.6077C382.226 59.5797 380.232 57.636 378.829 54.7651C378.452 53.9921 378.28 53.6173 378.56 52.7948C379.497 51.946 381.257 51.7709 382.455 51.308C383.784 52.1978 384.723 54.7243 386.742 55.9576C388.748 57.1829 393.091 56.8942 395.263 56.3222C396.589 55.9731 397.819 55.2704 398.5 54.0339C399.019 53.0921 399.09 51.997 398.788 50.9724C397.586 46.8841 386.563 47.7019 382.653 45.4915C380.939 44.5223 379.772 43.0765 379.25 41.1725C378.615 38.8587 378.74 35.7083 379.966 33.6004C381.482 30.9957 384.546 29.9658 387.292 29.2595Z"/>
	<path fill="#555C89" d="M366.601 30.0163C368.325 29.8965 369.998 29.751 371.716 30.0316C371.853 30.2444 371.965 30.4664 372.033 30.7112C372.388 31.9995 372.435 33.9241 371.734 35.0842C371.888 35.3201 372.022 35.5715 372.082 35.8487C372.546 37.9845 372.371 57.4471 371.706 58.4616C369.282 60.4984 365.065 61.0797 361.965 61.3515C357.971 61.7016 353.307 61.8727 350.066 59.1211C348.544 57.8292 347.557 56.0671 347.033 54.1565C345.312 47.8826 346.973 37.0219 346.372 30.0538C348.039 29.8718 349.605 29.8949 351.272 29.9897C353.343 33.2306 349.927 49.1224 352.807 53.7488C353.7 55.1833 355.105 55.9809 356.718 56.3323C359.218 56.8771 364.231 56.6717 366.436 55.2697C366.497 55.1661 366.549 55.0642 366.592 54.9516C367.219 53.3226 367.149 31.3018 366.601 30.0163Z"/>
	<path fill="#555C89" d="M290.969 29.2595C294.805 29.0323 299.185 28.6293 302.65 30.6208C304.911 31.921 306.266 33.9994 306.914 36.4932C307.634 39.2693 308.01 59.0321 307.046 60.683C305.28 60.7565 303.494 60.6897 301.726 60.6794C301.89 60.3853 302.026 60.0651 302.096 59.7343C302.516 57.7501 302.218 42.35 301.955 39.9339C301.833 38.8124 301.693 37.6121 301.053 36.651C300.132 35.2669 298.844 34.5725 297.25 34.2508C294.681 33.0717 289.585 34.4565 286.802 34.9368C286.855 35.076 286.905 35.2182 286.937 35.364C287.366 37.2748 287.182 56.4472 286.942 59.3699C286.902 59.8525 286.755 60.239 286.491 60.6451C284.831 60.8213 283.092 60.5992 281.429 60.4878C281.997 59.2416 282.134 33.9249 281.46 32.0652C282.49 31.7861 283.486 31.1899 284.501 30.8184C286.61 30.047 288.761 29.63 290.969 29.2595Z"/>
	<path fill="#555C89" d="M412.317 22.9044C413.888 22.631 415.58 22.7492 417.173 22.7547C417.342 23.0144 417.472 23.2736 417.54 23.5785C417.844 24.9365 417.968 28.6807 417.206 29.8837C420.27 29.8271 423.334 29.8507 426.397 29.9545C426.516 30.1226 426.616 30.3011 426.674 30.5002C427.035 31.7478 427.009 33.5952 426.397 34.7448C423.3 34.8841 420.196 34.7869 417.098 34.7317C419.171 38.4294 415.941 51.2122 418.842 54.4896C420.989 56.916 425.027 55.3083 426.851 57.2511C426.938 58.0306 426.715 58.4948 426.366 59.1814C426.616 59.7455 426.773 60.1685 426.723 60.7938C426.704 61.0284 426.404 61.2021 426.223 61.3556C423.664 61.8591 419.842 61.4065 417.486 60.3668C410.479 57.2738 412.539 45.6342 412.495 39.4174C412.485 37.9799 412.59 36.221 412.054 34.8725C412.044 34.8484 412.034 34.8246 412.024 34.8006C409.962 34.8235 407.9 34.8568 405.838 34.9005C405.871 34.8256 405.884 34.7989 405.913 34.7138C406.301 33.5428 406.045 31.1152 405.528 30.0028C407.731 29.8904 409.924 29.8912 412.129 29.905C412.829 28.7021 412.601 24.3246 412.317 22.9044Z"/>
	<path fill="#555C89" d="M269.445 18.403C270.728 18.2857 272.015 18.4257 273.295 18.5231C273.594 19.0078 273.715 19.4513 273.754 20.013C274.277 27.6452 273.83 35.5839 273.834 43.2538C273.836 48.1119 274.353 55.7678 273.646 60.3151C273.058 60.7309 272.701 60.6574 271.992 60.6893C270.65 60.8083 269.18 60.6564 267.826 60.6283C269.114 58.2564 267.133 20.796 268.479 18.7043C268.602 18.5127 269.206 18.4567 269.445 18.403Z"/>
	<path fill="#555C89" d="M440.238 29.2596C442.614 29.0996 444.956 29.0509 447.337 29.0875C447.472 29.3055 447.59 29.5322 447.66 29.7801C448.007 30.9938 447.912 32.7273 447.287 33.8286C443.487 33.8889 440.021 34.4931 436.279 35.0189C436.364 35.2217 436.441 35.4263 436.494 35.6404C436.944 37.4474 436.923 55.1055 436.642 57.5997C436.598 57.9902 436.442 58.3232 436.235 58.6524C436.387 58.9274 436.549 59.2029 436.599 59.5173C436.678 60.0117 436.618 60.0571 436.338 60.4536C434.884 61.041 432.795 60.6915 431.224 60.6235C431.28 60.5312 431.336 60.4315 431.369 60.328C431.647 59.4531 431.565 35.4848 431.42 32.8398C431.404 32.5493 431.274 32.256 431.147 31.9981C434.295 30.9023 436.91 29.9024 440.238 29.2596Z"/>
	<path fill="#555C89" d="M451.947 30.054C453.605 29.8685 455.215 29.8681 456.878 29.9001C457.069 30.188 457.232 30.4948 457.301 30.8369C457.595 32.3045 457.6 58.7377 457.3 59.8383C457.249 60.0226 456.932 60.3719 456.812 60.5455C455.089 60.7484 453.302 60.6329 451.568 60.6062C452.43 59.2199 452.09 33.5666 451.947 30.054Z"/>
	<path fill="#555C89" d="M453.442 18.6678C454.436 18.5629 455.739 18.3988 456.584 19.0341C457.288 19.563 457.813 20.5972 457.924 21.4587C458.038 22.3546 457.775 23.4686 457.171 24.1595C456.663 24.7394 455.964 24.6997 455.258 24.7873C454.013 24.8502 452.637 24.4704 451.409 24.245C452.141 23.0129 451.307 21.2724 451.837 19.9497C452.157 19.15 452.714 18.9795 453.442 18.6678Z"/>
</svg>
